<svg xmlns="http://www.w3.org/2000/svg" viewBox="0 0 200 200" width="200" height="200" role="img" aria-label="Cole Boxing Camp crest">
  <defs>
    <linearGradient id="cbcShield" x1="0%" y1="0%" x2="0%" y2="100%">
      <stop offset="0%" stop-color="#dc2626"/>
      <stop offset="100%" stop-color="#991b1b"/>
    </linearGradient>
    <radialGradient id="cbcLaurel" cx="50%" cy="50%" r="50%">
      <stop offset="0%" stop-color="#facc15" stop-opacity="0.35"/>
      <stop offset="100%" stop-color="#facc15" stop-opacity="0"/>
    </radialGradient>
  </defs>
  <path d="M 100 8 L 180 26 L 180 108 C 180 150 148 178 100 192 C 52 178 20 150 20 108 L 20 26 Z"
        fill="url(#cbcShield)" stroke="#111111" stroke-width="3" stroke-linejoin="round"/>
  <path d="M 100 18 L 172 33 L 172 108 C 172 144 144 170 100 183 C 56 170 28 144 28 108 L 28 33 Z"
        fill="none" stroke="#ffffff" stroke-opacity="0.2" stroke-width="1.5"/>
  <circle cx="100" cy="92" r="42" fill="url(#cbcLaurel)"/>
  <g stroke="#facc15" stroke-width="1.5" fill="none" stroke-linecap="round">
    <path d="M 60 90 Q 56 78 62 68"/>
    <path d="M 140 90 Q 144 78 138 68"/>
    <path d="M 66 80 L 70 76"/>
    <path d="M 134 80 L 130 76"/>
  </g>
  <g transform="translate(100,94)">
    <g transform="rotate(-35)">
      <ellipse cx="0" cy="-18" rx="15" ry="18" fill="#111111" stroke="#ffffff" stroke-width="1.5"/>
      <ellipse cx="0" cy="-18" rx="15" ry="18" fill="none" stroke="#facc15" stroke-opacity="0.35" stroke-width="0.8"/>
      <path d="M -9 -28 Q 0 -32 9 -28 L 10 -8 Q 0 -4 -10 -8 Z" fill="#111111" opacity="0.4"/>
      <rect x="-4" y="0" width="8" height="14" rx="2" fill="#ffffff"/>
      <path d="M -4 4 L 4 4 M -4 8 L 4 8 M -4 12 L 4 12" stroke="#facc15" stroke-width="0.8"/>
    </g>
    <g transform="rotate(35)">
      <ellipse cx="0" cy="-18" rx="15" ry="18" fill="#dc2626" stroke="#ffffff" stroke-width="1.5"/>
      <path d="M -9 -28 Q 0 -32 9 -28 L 10 -8 Q 0 -4 -10 -8 Z" fill="#ffffff" opacity="0.15"/>
      <rect x="-4" y="0" width="8" height="14" rx="2" fill="#ffffff"/>
      <path d="M -4 4 L 4 4 M -4 8 L 4 8 M -4 12 L 4 12" stroke="#dc2626" stroke-width="0.8"/>
    </g>
  </g>
  <rect x="20" y="128" width="160" height="22" fill="#ffffff"/>
  <text x="100" y="143" text-anchor="middle"
        font-family="DM Sans, 'Helvetica Neue', Helvetica, Arial, sans-serif"
        font-size="12" font-weight="800" letter-spacing="2"
        fill="#111111">COLE BOXING</text>
  <text x="100" y="165" text-anchor="middle"
        font-family="DM Sans, 'Helvetica Neue', Helvetica, Arial, sans-serif"
        font-size="9" font-weight="700" letter-spacing="3"
        fill="#ffffff" fill-opacity="0.88">CAMP · EST. 2019</text>
</svg>
