<svg xmlns="http://www.w3.org/2000/svg" viewBox="0 0 120 140" width="120" height="140">
  <!-- Fictional demo crest — St Clement's Primary (schools upload their own during onboarding) -->
  <defs>
    <linearGradient id="sh" x1="0" y1="0" x2="0" y2="1">
      <stop offset="0" stop-color="#1E3A8A"/>
      <stop offset="1" stop-color="#16265C"/>
    </linearGradient>
  </defs>
  <path d="M60 6 L110 20 V72 C110 104 88 124 60 134 C32 124 10 104 10 72 V20 Z" fill="url(#sh)" stroke="#C9A227" stroke-width="4"/>
  <path d="M60 16 L100 27 V71 C100 97 82 114 60 123 C38 114 20 97 20 71 V27 Z" fill="none" stroke="#C9A227" stroke-width="1.6" opacity="0.7"/>
  <line x1="60" y1="16" x2="60" y2="123" stroke="#C9A227" stroke-width="1.2" opacity="0.45"/>
  <line x1="20" y1="66" x2="100" y2="66" stroke="#C9A227" stroke-width="1.2" opacity="0.45"/>
  <!-- open book -->
  <path d="M34 38 C40 34 48 34 53 37 V56 C48 53 40 53 34 57 Z" fill="#F5F0E4"/>
  <path d="M86 38 C80 34 72 34 67 37 V56 C72 53 80 53 86 57 Z" fill="#F5F0E4"/>
  <!-- tennis ball -->
  <circle cx="60" cy="88" r="14" fill="#DCE84A"/>
  <path d="M49 79 C55 85 55 91 49 97 M71 79 C65 85 65 91 71 97" stroke="#fff" stroke-width="2.2" fill="none"/>
  <text x="60" y="49" font-family="Georgia, serif" font-size="13" font-weight="bold" fill="#C9A227" text-anchor="middle">SC</text>
</svg>
